<?xml version="1.0" encoding="UTF-8" standalone="no" ?>
<!DOCTYPE svg PUBLIC "-//W3C//DTD SVG 1.1//EN" "http://www.w3.org/Graphics/SVG/1.1/DTD/svg11.dtd">
<svg xmlns="http://www.w3.org/2000/svg" xmlns:xlink="http://www.w3.org/1999/xlink" version="1.1" width="500" height="500" viewBox="0 0 500 500" xml:space="preserve">
<desc>Created with Fabric.js 4.6.0</desc>
<defs>
</defs>
<g transform="matrix(-0.87 -0.5 0.5 -0.87 250 255)" id="DuI-1_y3rpPRrrsJJbF0h"  >
<path style="stroke: rgb(198,72,213); stroke-width: 0; stroke-dasharray: none; stroke-linecap: butt; stroke-dashoffset: 0; stroke-linejoin: miter; stroke-miterlimit: 4; fill: rgb(0,0,0); fill-rule: nonzero; opacity: 1;" vector-effect="non-scaling-stroke"  transform=" translate(-125, -225)" d="M 250 325 C 250 394 194 450 125 450 C 56 450 0 394 0 325 C 0 264.61990000000003 42.88224 214.19461 99.83278 202.53806 L 99.83278 254.33226 C 70.79953 264.68248 49.99999 292.427 49.99999 324.99999 C 49.99999 366.39999 83.59998999999999 399.99999 124.99999 399.99999 C 166.39999 399.99999 199.99999 366.39999 199.99999 324.99999 C 199.99999 292.36451 179.12056 264.57604000000003 150 254.27288000000004 L 150 202.50396000000003 C 207.03379999999999 214.09594000000004 250 264.56082000000004 250 325 z M 164.99998 325.00001 C 164.99997 347.08000999999996 147.07997999999998 365 124.99999 365 C 102.91999 365 85 347.08 85 325 C 85 306.37257999999997 97.75396 290.7059 115 286.26186 L 115 184.99999000000003 L 111.09678 184.99999000000003 C 107.19309 184.99999000000003 103.44928 183.44925000000003 100.68894999999999 180.68892000000002 L 99.99999999999999 179.99999000000003 L 99.31106999999999 179.31106000000003 C 96.55073999999999 176.55073000000002 94.99999999999999 172.80692000000002 94.99999999999999 168.90323000000004 L 94.99999999999999 30.00000000000003 C 94.99999999999999 13.43146000000003 108.43145999999999 2.842170943040401e-14 124.99999999999999 2.842170943040401e-14 C 141.56853999999998 2.842170943040401e-14 155 13.431460000000028 155 30.00000000000003 L 155 168.90323000000004 C 155 172.80692000000005 153.44926 176.55073000000004 150.68893 179.31106000000003 L 149.31107 180.68892000000002 C 146.55074 183.44925000000003 142.80693 184.99999000000003 138.90324 184.99999000000003 L 135 184.99999000000003 L 135 286.26187000000004 C 152.24603 290.70592000000005 164.99998 306.37259000000006 164.99998 325.00000000000006 z M 130 185.5 C 130 182.73858 127.76142 180.5 125 180.5 C 122.23858 180.5 120 182.73858 120 185.5 L 120 305.5 L 122.51115 313.03344 C 122.86824 314.10472 123.87078 314.8273 125 314.8273 C 126.12923 314.8273 127.13176 314.10470999999995 127.48885 313.03344 L 130 305.5 z" stroke-linecap="round" />
</g>
<g transform="matrix(-0.4 -0.23 0.23 -0.4 302.5 164.07)" id="hBa-cNZiVkSRoq1bejKen"  >
<path style="stroke: rgb(65,197,80); stroke-width: 0; stroke-dasharray: none; stroke-linecap: butt; stroke-dashoffset: 0; stroke-linejoin: miter; stroke-miterlimit: 4; fill: rgb(255,189,0); fill-rule: nonzero; opacity: 1;" vector-effect="non-scaling-stroke"  transform=" translate(0, 0)" d="M 0 -27.58621 C 15.22759 -27.58621 27.58621 -15.227590000000001 27.58621 0 C 27.58621 15.22759 15.227590000000001 27.58621 0 27.58621 C -15.22759 27.58621 -27.58621 15.227590000000001 -27.58621 0 C -27.58621 -15.22759 -15.227590000000001 -27.58621 0 -27.58621 z" stroke-linecap="round" />
</g>
</svg>